<mxfile host="app.diagrams.net" modified="2024-04-06T00:44:52.397Z" agent="Mozilla/5.0 (Windows NT 10.0; Win64; x64) AppleWebKit/537.36 (KHTML, like Gecko) Chrome/123.0.0.0 Safari/537.36" version="23.0.2" etag="RmFTqwM4SKKxjDxp5pNE" type="github">
  <diagram name="Page-1" id="CnoPHcwa2yGqLAzXnCST">
    <mxGraphModel>
      <root>
        <mxCell id="0" />
        <mxCell id="1" parent="0" />
      </root>
    </mxGraphModel>
  </diagram>
</mxfile>
